<?xml version="1.0" encoding="utf-8"?>
<!-- Generator: Adobe Illustrator 24.3.0, SVG Export Plug-In . SVG Version: 6.00 Build 0)  -->
<svg version="1.1" id="Layer_1" xmlns="http://www.w3.org/2000/svg" xmlns:xlink="http://www.w3.org/1999/xlink" x="0px" y="0px"
	 viewBox="0 0 80 80" style="enable-background:new 0 0 80 80;" xml:space="preserve">
<style type="text/css">
	.st0{fill:#E76623;}
</style>
<g>
	<g>
		<path class="st0" d="M14.9,33.6c0.6,0,1.1-0.5,1.1-1.1c0-0.6-0.5-1.1-1.1-1.1c-0.6,0-1.1,0.5-1.1,1.1
			C13.8,33.1,14.3,33.6,14.9,33.6z"/>
		<rect x="37.7" y="31.8" class="st0" width="1.6" height="2.3"/>
		<rect x="40.8" y="31.8" class="st0" width="1.6" height="2.3"/>
		<rect x="43.9" y="31.8" class="st0" width="1.6" height="2.3"/>
		<rect x="47" y="31.8" class="st0" width="1.6" height="2.3"/>
		<rect x="37.7" y="27.9" class="st0" width="1.6" height="2.3"/>
		<rect x="40.8" y="27.9" class="st0" width="1.6" height="2.3"/>
		<rect x="43.9" y="27.9" class="st0" width="1.6" height="2.3"/>
		<rect x="47" y="27.9" class="st0" width="1.6" height="2.3"/>
		<rect x="37.7" y="24" class="st0" width="1.6" height="2.3"/>
		<rect x="40.8" y="24" class="st0" width="1.6" height="2.3"/>
		<rect x="43.9" y="24" class="st0" width="1.6" height="2.3"/>
		<rect x="47" y="24" class="st0" width="1.6" height="2.3"/>
		<rect x="37.7" y="20.1" class="st0" width="1.6" height="2.3"/>
		<rect x="40.8" y="20.1" class="st0" width="1.6" height="2.3"/>
		<rect x="43.9" y="20.1" class="st0" width="1.6" height="2.3"/>
		<rect x="47" y="20.1" class="st0" width="1.6" height="2.3"/>
		<rect x="37.7" y="16.2" class="st0" width="1.6" height="2.3"/>
		<rect x="40.8" y="16.2" class="st0" width="1.6" height="2.3"/>
		<rect x="43.9" y="16.2" class="st0" width="1.6" height="2.3"/>
		<rect x="47" y="16.2" class="st0" width="1.6" height="2.3"/>
		<rect x="37.7" y="12.3" class="st0" width="1.6" height="2.3"/>
		<rect x="40.8" y="12.3" class="st0" width="1.6" height="2.3"/>
		<rect x="43.9" y="12.3" class="st0" width="1.6" height="2.3"/>
		<rect x="47" y="12.3" class="st0" width="1.6" height="2.3"/>
		<rect x="37.7" y="8.4" class="st0" width="1.6" height="2.3"/>
		<rect x="40.8" y="8.4" class="st0" width="1.6" height="2.3"/>
		<rect x="43.9" y="8.4" class="st0" width="1.6" height="2.3"/>
		<rect x="47" y="8.4" class="st0" width="1.6" height="2.3"/>
		<rect x="31.4" y="35.6" class="st0" width="1.6" height="2.3"/>
		<rect x="31.4" y="31.8" class="st0" width="1.6" height="2.3"/>
		<rect x="31.4" y="27.9" class="st0" width="1.6" height="2.3"/>
		<rect x="31.4" y="24" class="st0" width="1.6" height="2.3"/>
		<rect x="31.4" y="20.1" class="st0" width="1.6" height="2.3"/>
		<rect x="31.4" y="16.2" class="st0" width="1.6" height="2.3"/>
		<rect x="31.4" y="12.3" class="st0" width="1.6" height="2.3"/>
		<rect x="53.2" y="35.6" class="st0" width="1.6" height="2.3"/>
		<rect x="53.2" y="31.8" class="st0" width="1.6" height="2.3"/>
		<rect x="53.2" y="27.9" class="st0" width="1.6" height="2.3"/>
		<rect x="53.2" y="24" class="st0" width="1.6" height="2.3"/>
		<rect x="53.2" y="20.1" class="st0" width="1.6" height="2.3"/>
		<rect x="53.2" y="16.2" class="st0" width="1.6" height="2.3"/>
		<rect x="53.2" y="12.3" class="st0" width="1.6" height="2.3"/>
		<path class="st0" d="M68.9,47.5v-3.9c0-0.5-0.4-1-1-1h-1.4v-1.6h-3.1V31l1.9,1.4l0.9-1.2l-2.3-1.7l2.3-1.7l-0.9-1.2l-1.9,1.4v-2.3
			h-1.6v2.3l-1.9-1.4L59,27.7l2.3,1.7L59,31.1l0.9,1.2l1.9-1.4v10.1h-3.9V10h1.6V8.4h-2.3v0c0,0,0,0,0,0h-5.4V6.8h1.6V5.3h-2.3H35.3
			H33v1.6h1.6v1.6h-5.4v0h-2.3V10h1.6v31.1h-3.9V31l1.9,1.4l0.9-1.2L25,29.4l2.3-1.7l-0.9-1.2l-1.9,1.4v-2.3h-1.6v2.3L21,26.5
			l-0.9,1.2l2.3,1.7l-2.3,1.7l0.9,1.2l1.9-1.4v10.1h-3.1v1.6h-3.4l0-3.6c0,0,0-3,0-3.8l0-0.2c1.3-0.6,2.2-1.9,2.4-3.3
			c0.1-0.7-1-1-1.1-0.3c-0.2,0.9-0.6,1.9-1.4,2.4l0,0c-0.5-0.1-2.2-0.3-3,0.1c0,0,0,0,0,0c0,0-0.1,0-0.1,0.1c-0.4,0.3-0.7,0.8-1,1.3
			c-0.1,0.3-0.4,0.7-0.4,1c0,0.3,0.3,0.7,0.4,1c0.3,0.5,0.7,1,1.2,1.3l0,0.7v3.3h-1.7c-0.5,0-1,0.4-1,1v3.9c0,0.5,0.4,1,1,1h31.8
			l-5.8,1.9H23.3c-0.3,0-0.5,0.1-0.7,0.3l-4.2,4.2l-1.3-1.3c-0.4-0.4-1-0.4-1.4,0L11,58.4c-0.4,0.4-0.4,1,0,1.4l14.5,14.5
			c0.4,0.4,1,0.4,1.4,0l4.8-4.8c0.4-0.4,0.4-1,0-1.4L31.6,68l5.6-4h19.1c0.2,0,0.5-0.1,0.7-0.3L67.5,54c1.6-1.5,1.9-3.9,0.6-5.6
			C68.6,48.3,68.9,47.9,68.9,47.5z M46.2,41.1h-2.3v-3.9h2.3V41.1z M42.3,41.1H40v-3.9h2.3V41.1z M56.3,10v31.1h-4.7V10H56.3z
			 M50.1,6.8v34.2h-2.3v-4.7c0-0.4-0.3-0.8-0.8-0.8h-7.8c-0.4,0-0.8,0.3-0.8,0.8v4.7h-2.3V9.2c0,0,0,0,0,0V6.8H50.1z M29.9,10h4.7
			v31.1h-4.7V10z M12.9,36.4C12.9,36.3,12.9,36.3,12.9,36.4L12.9,36.4z M13.2,36.9c-0.1-0.1-0.2-0.3-0.2-0.4c0,0,0-0.1,0-0.1
			c0.1-0.4,0.3-0.8,0.5-1.1l0,2.1C13.4,37.2,13.3,37.1,13.2,36.9z M14.7,39.2c0,0,0-0.2,0.2-0.2c0.2,0,0.2,0.2,0.2,0.2v3.4h-0.5
			V39.2z M12.7,46.5v-1.9h54.2v1.9H12.7z M52.2,49c-0.1-0.2-0.2-0.4-0.4-0.6h8.7L54,54.3h-3.4C52.4,53.3,53.2,50.9,52.2,49z
			 M26.3,72.3L13.1,59.1l3.5-3.5l13.2,13.2L26.3,72.3z M66.2,52.6L55.9,62h-19c-0.2,0-0.4,0.1-0.6,0.2l-6.1,4.4L19.9,56.2l3.9-3.9
			h14.1c0.1,0,0.2,0,0.3,0l9.9-3.3c1-0.3,2.1,0.2,2.5,1.2c0.3,1-0.2,2.1-1.2,2.5c0,0-0.1,0-0.1,0l-5.7,1.5h-2.8v1.9h13.6
			c0.2,0,0.5-0.1,0.6-0.2l7.8-6.9c0.4-0.4,1-0.6,1.6-0.6h0.2c1.3,0,2.4,1.1,2.4,2.4C66.9,51.5,66.7,52.2,66.2,52.6z"/>
		<rect x="16" y="56.5" transform="matrix(0.7071 -0.7071 0.7071 0.7071 -36.4742 29.1317)" class="st0" width="1.9" height="4.1"/>
	</g>
</g>
</svg>
