<?xml version="1.0" encoding="utf-8"?>
<!-- Generator: Adobe Illustrator 24.3.0, SVG Export Plug-In . SVG Version: 6.00 Build 0)  -->
<svg version="1.1" baseProfile="tiny" id="Layer_1" xmlns="http://www.w3.org/2000/svg" xmlns:xlink="http://www.w3.org/1999/xlink"
	 x="0px" y="0px" viewBox="0 0 80 80" overflow="visible" xml:space="preserve">
<g>
	<path fill="#E76623" d="M9.9,54.8c-0.9-0.9-2.2-1-3.2-0.4c-1.1,0.6-1.6,1.8-1.3,3.1H9C8.9,56.5,9.2,55.6,9.9,54.8 M33.2,23
		c0.4,0.5,0.5,1.1,1.3,1.1c5.2,0,10.3,0,15.5,0h0.6c-0.3-0.8-0.7-1.1-1.6-1.1c-5,0-10.1,0-15.1,0H33.2z M18.3,32c-0.3,0-0.5,0-0.7,0
		c-4.5,0-8.9,0-13.4,0c-1,0-1.4,0.4-1.6,1.4c0.2,0,0.4,0,0.6,0c4.2,0,8.4-0.1,12.6,0c1.1,0,1.9-0.3,2.4-1.3
		C18.2,32.2,18.2,32.2,18.3,32 M38,29c0.6,0.8,1,1.4,2.1,1.4c4.5-0.1,9,0,13.6,0c0.2,0,0.4,0,0.8,0c-0.3-0.4-0.5-0.7-0.6-1
		c-0.2-0.3-0.4-0.4-0.7-0.4c-4.8,0-9.7,0-14.5,0C38.5,28.9,38.3,29,38,29 M4.5,30.3c0.2,0,0.4,0,0.6,0c4.6,0,9.2,0,13.7,0
		c1,0,1.5-0.4,1.9-1.4c-0.2,0-0.4,0-0.6,0c-4.5,0-9,0-13.6,0c-1.1,0-1.7,0.3-2.1,1.2C4.5,30.2,4.5,30.2,4.5,30.3 M19.1,59.3H3.5v1.3
		h15.5V59.3z M52.5,27.2c-0.2-0.3-0.3-0.5-0.4-0.7c-0.2-0.6-0.6-0.7-1.3-0.7c-4.9,0-9.8,0-14.7,0h-0.8c0.2,0.3,0.4,0.4,0.5,0.6
		c0.4,0.6,0.9,0.8,1.6,0.8c4.8,0,9.5,0,14.3,0H52.5z M19.1,57.6c0-0.9,0-1.7,0-2.5c0-0.5-0.2-0.8-0.5-1c-1.3-1.1-3.3-0.7-4.1,0.8
		c-0.6,1-0.6,1-1.7,0.7c-1-0.3-2.1,0.5-2.1,1.5c0,0.3,0.1,0.5,0.4,0.5C13.7,57.5,16.3,57.6,19.1,57.6 M29.4,21.4
		C25.6,26,21.8,30.6,18,35.2c1,0.3,1.6-0.1,2.2-0.8c1.5-2,3.2-3.9,4.7-5.8c1.2-1.5,2.4-3,3.7-4.4c0.6-0.7,1.1-0.7,1.6,0
		c0.1,0.1,0.1,0.2,0.2,0.3c2.8,3.3,5.6,6.7,8.3,10.1c0.6,0.8,1.2,0.9,2.1,0.7C37.1,30.6,33.3,26,29.4,21.4 M23.5,25.8
		c-2.1,0-4,0-6,0c-0.3,0-0.5,0-0.8-0.1c-0.4-0.1-0.6-0.4-0.6-0.8c0-0.4,0.2-0.7,0.6-0.8c0.2,0,0.5,0,0.7,0c2.2,0,4.5,0,6.7,0
		c0.8,0,1.2-0.3,1.4-1.1H25c-5,0-10.1,0-15.1,0c-1,0-1.1,0.1-1.5,1.1c0.4,0,0.8,0,1.2,0c1.1,0,2.3,0,3.4,0c0.5,0,0.8,0.3,0.9,0.8
		c0,0.5-0.2,0.8-0.7,0.9c-0.2,0-0.3,0-0.5,0c-1.5,0-3,0-4.5,0c-0.9,0-1.4,0.4-1.6,1.3c0.1,0,0.1,0,0.2,0c5.1,0,10.2,0,15.4,0
		c0.2,0,0.4-0.1,0.5-0.2C22.8,26.7,23.1,26.3,23.5,25.8 M33.1,47.3h-7.2v13.3h7.2V47.3z M19,52.2V37c-0.8,0-1.6,0-2.4,0
		c-0.9,0-1.3-0.7-1.1-1.5c0-0.1,0.1-0.2,0.1-0.3h-9v17.3c1.4-0.4,2.7-0.3,3.8,0.6c0.7,0.5,1.3,0.9,2.2,0.7c0.2-0.1,0.5-0.1,0.6-0.3
		c0.8-0.9,1.7-1.5,3-1.7C17.2,51.6,18.1,51.8,19,52.2 M52.2,60.6V35.2c-0.4,0-0.8,0-1.2,0c-0.8,0-1.2-0.3-1.2-0.9
		c0-0.6,0.4-0.9,1.2-0.9c1.6,0,3.3,0,4.9,0h0.6c-0.1-0.3-0.2-0.4-0.3-0.6c-0.3-0.7-0.8-0.9-1.5-0.9c-4.4,0-8.9,0-13.3,0h-0.8
		c0.2,0.3,0.4,0.5,0.5,0.7c0.4,0.6,0.8,0.8,1.5,0.7c1.3-0.1,2.5,0,3.8,0c0.5,0,0.8,0.2,0.9,0.8c0.1,0.5-0.3,0.9-0.8,0.9
		c-0.2,0-0.4,0-0.6,0c-0.9,0-1.8,0-2.7,0c0.4,1.3,0,1.8-1.4,1.8c-0.7,0-1.3,0-2,0c0,1,0,1.9,0,2.9c0,2.1,0,4.1,0,6.2
		c0,0.6-0.3,0.9-0.8,0.9c-0.5,0-0.9-0.3-0.9-0.9c0-0.2,0-0.3,0-0.5c0-2.9,0-5.8,0-8.7c0-0.3-0.1-0.6-0.3-0.8
		c-2.7-3.3-5.4-6.5-8.1-9.8c-0.1-0.1-0.1-0.2-0.2-0.4c-0.2,0.3-0.3,0.4-0.5,0.5c-2.6,3.2-5.3,6.4-7.9,9.6c-0.2,0.2-0.3,0.6-0.3,0.9
		c0,7.7,0,15.4,0,23.1c0,0.2,0,0.4,0,0.6h3.3c0-0.3,0-0.5,0-0.7c0-4.2,0-8.4,0-12.6c0-1.2,0.6-1.7,1.7-1.7c2.4,0,4.8,0,7.2,0
		c1.3,0,1.8,0.5,1.8,1.8c0,4.2,0,8.4,0,12.6v0.6h3.3v-0.7c0-3.1,0-6.2,0-9.3c0-0.2,0-0.5,0.1-0.7c0.1-0.4,0.4-0.6,0.9-0.6
		c0.4,0,0.7,0.3,0.8,0.7c0,0.2,0,0.4,0,0.6c0,3.1,0,6.1,0,9.2c0,0.2,0,0.4,0,0.7H52.2z M58.9,61.8c-0.3,0.5-0.7,0.6-1.2,0.6
		c-18.8,0-37.7,0-56.5,0c-0.1,0-0.3,0-0.4,0C0.3,62.3,0,62,0,61.5c0-0.5,0.3-0.8,0.7-0.8c0.3-0.1,0.6,0,1-0.1c0-0.4,0-0.7,0-1
		c0-1.4,0.4-1.8,1.8-2.1c-0.1-1.1,0-2.2,0.7-3c0.7-0.8,0.7-1.7,0.7-2.7c0-5.2,0-10.5,0-15.7v-0.9c-1.1,0-2.1,0-3.1,0
		c-0.3,0-0.6,0-0.8-0.1c-0.6-0.2-0.9-0.8-0.7-1.4c0.1-0.2,0.2-0.5,0.4-0.7c2.2-3.5,4.4-6.9,6.6-10.4c0.6-0.9,1.3-1.3,2.4-1.3
		c5.7,0,11.4,0,17.1,0c0.4,0,0.7-0.1,1-0.4c0.2-0.3,0.5-0.7,0.8-1c0.6-0.6,1.4-0.6,2,0c0.1,0.1,0.1,0.1,0.2,0.2
		c0.6,1.1,1.4,1.2,2.6,1.2c5.4-0.1,10.7,0,16.1,0c1.1,0,1.8,0.4,2.4,1.3c2.1,3.4,4.3,6.9,6.5,10.3c0.1,0.1,0.2,0.3,0.3,0.4
		c0.5,0.9,0.1,1.8-1,1.8c-0.9,0-1.8,0-2.6,0c-0.2,0-0.5,0-0.8,0v25.5c1.1,0,2.2,0,3.3,0c0.2,0,0.5-0.1,0.7,0
		c0.3,0.1,0.6,0.4,0.9,0.5V61.8z"/>
	<path fill="#E76623" d="M47.3,40.9h-2.7v8h2.7V40.9z M49.1,44.9c0,1.3,0,2.6,0,4c0,1.2-0.6,1.8-1.8,1.8c-0.9,0-1.9,0-2.8,0
		c-1,0-1.6-0.6-1.7-1.6c0-2.8,0-5.5,0-8.3c0-1,0.6-1.6,1.6-1.6c1,0,2,0,3,0c1,0,1.6,0.6,1.6,1.6C49.1,42.1,49.1,43.5,49.1,44.9"/>
	<path fill="#E76623" d="M31.5,38.4c0-1,0-1.9,0-2.8c0-0.7-0.4-1.3-1-1.5c-0.6-0.2-1.2-0.2-1.8-0.1c-0.7,0.1-1.1,0.6-1.2,1.2
		c-0.1,1,0,2.1,0,3.1H31.5z M29.4,40.1c-0.8,0-1.5,0-2.3,0c-0.9,0-1.4-0.5-1.4-1.3c0-1.1-0.1-2.3,0-3.4c0.2-1.8,1.3-3,3.2-3.1
		c1.8-0.2,3.3,0.5,4,1.9c0.1,0.3,0.3,0.6,0.3,1c0.1,1.2,0.1,2.5,0.1,3.7c0,0.8-0.5,1.3-1.4,1.3C31,40.1,30.2,40.1,29.4,40.1"/>
	<path fill="#E76623" d="M11.6,49h2.7v-8h-2.7V49z M9.8,44.9c0-1.3,0-2.7,0-4c0-1.2,0.6-1.7,1.7-1.7c1,0,1.9,0,2.9,0
		c1.1,0,1.6,0.6,1.6,1.6c0,2.7,0,5.5,0,8.2c0,1.1-0.6,1.7-1.7,1.7c-1,0-2,0-2.9,0c-1,0-1.6-0.6-1.6-1.7C9.8,47.7,9.8,46.3,9.8,44.9
		L9.8,44.9z"/>
	<path fill="#E76623" d="M28,53.7c0,0.4,0,0.7,0,1c-0.1,0.5-0.3,0.8-0.8,0.8c-0.5,0-0.8-0.3-0.8-0.7c0-0.7,0-1.3,0-2
		c0-0.5,0.4-0.7,0.8-0.7c0.4,0,0.8,0.3,0.8,0.7C28,53.1,28,53.4,28,53.7"/>
	<path fill="#E76623" d="M78.3,48.7c-0.2,0.2-0.2,0.5-0.1,0.7c0,0,0.2,0.3,0.2,0.7c0,0.6-0.2,1-0.8,1.5c-0.2,0.2-0.3,0.4-0.2,0.7
		c0,0,0.2,0.6-0.1,1.1c-0.3,0.5-0.9,0.9-1.9,1.1c-0.8,0.2-1.8,0.2-3.1,0.1c0,0,0,0-0.1,0c-2.7,0.1-5.5-0.2-5.5-0.2h0l-0.4,0
		c0-0.1,0-0.2,0-0.4l-0.1-6.9c0-0.2,0-0.4-0.1-0.5c0.1-0.3,0.3-0.9,0.8-1.5c1.9-1.5,3.6-6.7,3.7-6.9c0-0.1,0-0.2,0-0.3
		c-0.1-0.5-0.1-1.1,0-1.2c0.2,0,0.8,0.1,1.2,0.6c0.4,0.6,0.4,1.7,0,3.1c-0.7,2.2-0.7,3.3-0.1,3.8c0.3,0.2,0.7,0.3,0.9,0.1
		c0.3-0.1,0.5-0.1,0.7-0.2c0,0,0,0,0.1,0c1.3-0.3,3.6-0.5,4.4,0.2c0.7,0.6,0.2,1.5,0.2,1.5c-0.2,0.2-0.1,0.5,0.1,0.7
		c0,0,0.5,0.4,0.5,1C78.9,47.9,78.7,48.3,78.3,48.7 M62.2,54.7c-0.3,0-0.6-0.3-0.6-0.6l-0.1-6.9c0-0.3,0.3-0.6,0.6-0.6l2.6,0
		c0.3,0,0.6,0.3,0.6,0.6l0.1,6.9c0,0.3-0.3,0.6-0.6,0.6L62.2,54.7L62.2,54.7z M79.4,49.2c0.4-0.5,0.6-1.1,0.6-1.7
		c0-0.6-0.3-1.1-0.6-1.4c0.3-0.7,0.4-1.8-0.6-2.6c-0.7-0.6-1.8-0.9-3.4-0.8c-1.1,0.1-2,0.3-2.1,0.3h0c-0.2,0-0.4,0.1-0.7,0.1
		c0-0.3,0-0.9,0.5-2.5c0.6-1.8,0.5-3.2-0.2-4.1c-0.7-1-1.8-1-2.2-1c-0.3,0-0.6,0.1-0.8,0.4c-0.5,0.6-0.4,1.6-0.3,2
		c-0.5,1.5-2,5.2-3.3,6.3c0,0,0,0-0.1,0.1c-0.4,0.4-0.6,0.9-0.8,1.3c-0.3-0.1-0.5-0.2-0.8-0.2l-2.6,0c-1,0-1.7,0.8-1.7,1.8l0.1,6.9
		c0,1,0.8,1.7,1.8,1.7l2.6,0c0.4,0,0.7-0.1,1-0.3l1,0.1c0.2,0,2.9,0.3,5.6,0.2c0.5,0,1,0,1.4,0c0.8,0,1.4-0.1,2-0.2
		c1.3-0.3,2.2-0.9,2.6-1.7c0.3-0.6,0.3-1.2,0.3-1.6c0.8-0.8,1-1.6,0.9-2.2C79.6,49.7,79.5,49.4,79.4,49.2"/>
</g>
</svg>
