<?xml version="1.0" encoding="utf-8"?>
<!-- Generator: Adobe Illustrator 24.3.0, SVG Export Plug-In . SVG Version: 6.00 Build 0)  -->
<svg version="1.1" id="Layer_1" xmlns="http://www.w3.org/2000/svg" xmlns:xlink="http://www.w3.org/1999/xlink" x="0px" y="0px"
	 viewBox="0 0 80 80" enable-background="new 0 0 80 80" xml:space="preserve">
<g>
	<g>
		<path fill="#E76623" d="M20.3,36.8c0.1-0.1,0.1-0.3,0.2-0.4c0.4-1.1,1.6-1.8,2.7-1.7c1.2,0.1,2.2,1.1,2.3,2.3c0.1,1.2,0,2.5,0,3.7
			c0,1.3,0,2.5,0,3.8c0,0.9,0.3,1.8,0.7,2.7c0.1-0.2,0.2-0.3,0.3-0.4c1-1.4,3.1-1.6,4.4-0.5c1.2,1.1,2.5,2.3,3.6,3.6
			c1.7,1.8,2.5,4,2.5,6.5c0,1.2,0,2.4,0,3.7c0.2,0,0.4,0,0.6,0c0.5,0,0.8,0.3,0.8,0.8c0,1.4,0,2.9,0,4.3c0,0.5-0.3,0.8-0.9,0.8
			c-1.8,0-3.7,0-5.5,0c-2.4,0-4.7,0-7.1,0c-0.7,0-1-0.3-1-1c0-1.3,0-2.5,0-3.8c0-0.8,0.2-1.1,1-1.1c0.1,0,0.2,0,0.4,0
			c-0.1-0.2-0.1-0.3-0.2-0.4c-1.1-1.9-2.2-3.8-3.3-5.7c-0.7-1.3-1.3-2.6-1.4-4.1c0,0,0-0.1-0.1-0.1C20.3,45.4,20.3,41.1,20.3,36.8z
			 M35.4,60c0-1.3,0-2.5,0-3.7c0-2.2-0.8-4.1-2.4-5.7c-1-1-2-2-3-3c-0.6-0.6-1.5-0.6-2.1-0.1c-0.6,0.5-0.6,1.4-0.1,2.1
			c0.3,0.4,0.7,0.8,1,1.2c0.7,0.8,1.4,1.6,2.1,2.5c0.4,0.5,0.2,1.2-0.4,1.3c-0.3,0.1-0.6-0.1-0.8-0.3c-1.2-1.4-2.4-2.8-3.5-4.2
			c-1.4-1.7-2.2-3.8-2.2-6c0-2.1,0-4.3,0-6.4c0-0.2,0-0.4,0-0.5c-0.1-0.5-0.5-0.9-1-0.9c-0.5,0-0.9,0.3-1.1,0.7
			c-0.1,0.2-0.1,0.4-0.1,0.6c0,3.7,0,7.4,0,11.1c0,1.5,0.4,3,1.2,4.3c1.3,2.2,2.6,4.5,3.9,6.7c0.1,0.2,0.3,0.3,0.5,0.3
			c2.5,0,5,0,7.6,0C35.1,60,35.2,60,35.4,60z M36.7,61.5c-3.8,0-7.6,0-11.3,0c0,0.9,0,1.8,0,2.7c3.8,0,7.5,0,11.3,0
			C36.7,63.4,36.7,62.5,36.7,61.5z"/>
		<path fill="#E76623" d="M40.2,26.5c0.2,0.2,0.4,0.3,0.5,0.5c2.1,2.7,4.2,5.3,6.2,8c3.3,4.3,1.9,10.6-2.9,13.1
			c-0.1,0.1-0.3,0.1-0.4,0.2c-0.4,0.1-0.7-0.1-0.9-0.4c-0.2-0.4-0.1-0.7,0.3-1c0.1-0.1,0.2-0.1,0.3-0.1c4.1-2.1,5.3-7.3,2.4-10.9
			c-1.8-2.3-3.6-4.7-5.5-7c-0.1-0.1-0.1-0.1-0.2-0.2c-0.1,0.1-0.2,0.2-0.2,0.3c-1.8,2.3-3.6,4.6-5.4,6.9c-2.9,3.7-1.7,8.8,2.4,11
			c0.4,0.2,0.6,0.4,0.6,0.9c0,0.6-0.6,0.8-1.2,0.6c-1.5-0.8-2.8-1.8-3.6-3.3c-1.9-3.2-1.7-7,0.6-10c2-2.6,4.1-5.3,6.1-7.9
			c0.1-0.2,0.3-0.3,0.5-0.5C39.9,26.5,40.1,26.5,40.2,26.5z"/>
		<path fill="#E76623" d="M54.7,60c0.3,0,0.5,0,0.7,0c0.4,0,0.7,0.3,0.7,0.7c0,1.4,0,2.9,0,4.3c0,0.4-0.3,0.7-0.8,0.8
			c-0.4,0-0.9,0-1.3,0c-3.8,0-7.6,0-11.3,0c-0.8,0-1-0.2-1-1c0-1.2,0-2.5,0-3.7c0-0.9,0.2-1.1,1.1-1.1c0.1,0,0.2,0,0.3,0
			c0-0.1,0-0.3,0-0.4c0-1.1,0-2.3,0-3.4c0-2.6,1-4.9,2.8-6.8c1-1,2-2,3-2.9c1.5-1.4,3.5-1.2,4.7,0.4c0,0,0.1,0.1,0.1,0.2
			c0.4-0.9,0.7-1.8,0.7-2.7c0-2.3,0-4.7,0-7c0-1.1,0.5-2,1.5-2.5c1.7-0.8,3.7,0.4,3.7,2.2c0,4.1,0,8.1,0,12.2c0,1.6-0.5,3-1.3,4.4
			c-1.1,2-2.3,3.9-3.4,5.9C54.8,59.7,54.8,59.8,54.7,60z M44.6,60c0.1,0,0.2,0,0.2,0c2.6,0,5.3,0,7.9,0c0.1,0,0.3-0.1,0.4-0.3
			c1.3-2.3,2.6-4.5,4-6.8c0.8-1.3,1.1-2.7,1.1-4.2c0-3.7,0-7.4,0-11.1c0-0.1,0-0.3,0-0.4c-0.1-0.5-0.4-0.9-0.9-0.9
			c-0.4-0.1-0.9,0.2-1.1,0.6C56,37,56,37.3,56,37.5c0,2,0,4,0,6c0,2.1-0.6,4.1-1.8,5.9c-0.4,0.5-0.8,1-1.2,1.5
			c-0.9,1.1-1.9,2.2-2.8,3.3c-0.2,0.2-0.5,0.4-0.8,0.3c-0.2-0.1-0.5-0.3-0.6-0.5c-0.2-0.3,0-0.6,0.2-0.8c1-1.2,2-2.4,3-3.6
			c0.3-0.3,0.5-0.7,0.5-1.2c0-0.6-0.4-1.1-0.9-1.3C51,47,50.5,47.1,50,47.5c-1.1,1-2.2,2.1-3.2,3.2c-1,1-1.7,2.3-2,3.7
			C44.4,56.3,44.7,58.1,44.6,60z M54.6,61.5c-3.8,0-7.6,0-11.3,0c0,0.9,0,1.8,0,2.7c3.8,0,7.6,0,11.3,0
			C54.6,63.3,54.6,62.5,54.6,61.5z"/>
		<path fill="#E76623" d="M38.2,40.7c-0.5,0-1,0-1.5,0c-0.3,0-0.6-0.1-0.8-0.4c-0.2-0.3-0.1-0.6,0.1-0.9c1.4-2.2,2.8-4.3,4.2-6.5
			c0.3-0.4,0.6-0.5,0.9-0.4c0.3,0.1,0.5,0.4,0.5,0.8c0,1.1,0,2.3,0,3.4c0,0.2,0,0.3,0,0.5c0.6,0,1.1,0,1.6,0c0.3,0,0.6,0.1,0.8,0.4
			c0.2,0.3,0.1,0.6-0.1,0.9c-1.4,2.2-2.8,4.3-4.2,6.5c-0.3,0.4-0.6,0.5-0.9,0.4c-0.4-0.1-0.6-0.4-0.6-0.9c0-1.2,0-2.3,0-3.5
			C38.3,41,38.3,40.9,38.2,40.7z M38,39.2c0.4,0,0.7,0,1,0c0.5,0,0.8,0.3,0.8,0.8c0,0.2,0,0.5,0,0.7c0,0.4,0,0.8,0,1.3
			c0,0,0.1,0,0.1,0c0.7-1,1.4-2.1,2.1-3.2c-0.4,0-0.6,0-0.9,0c-0.6,0-0.8-0.3-0.9-0.8c0-0.3,0-0.7,0-1c0-0.3,0-0.6,0-1
			c0,0-0.1,0-0.1,0C39.4,37,38.7,38.1,38,39.2z"/>
		<path fill="#E76623" d="M40.8,48.2c0,0.4-0.4,0.8-0.8,0.8c-0.4,0-0.7-0.4-0.7-0.8c0-0.4,0.4-0.8,0.8-0.8
			C40.4,47.5,40.8,47.8,40.8,48.2z"/>
	</g>
	<g>
		<path fill="#E76623" d="M72.3,37.1L62.6,28V13.1H51.3v4.4L40,7.1l-32.3,30c-0.5,0.4-0.5,1.1-0.1,1.6c0.4,0.5,1.1,0.5,1.6,0.1
			l3.7-3.5v37.6h18h18h18V35.3l3.7,3.5c0.2,0.2,0.5,0.3,0.8,0.3c0.3,0,0.6-0.1,0.8-0.4C72.8,38.3,72.8,37.5,72.3,37.1z M53.5,15.4
			h6.8v10.5l-6.8-6.3V15.4z M31,70.7H15.2V33.2l24.8-23l16.1,15l6.5,6l0,0l2.3,2.1v37.4H49C48.9,70.6,31,70.7,31,70.7z"/>
	</g>
</g>
</svg>
